<svg xmlns="http://www.w3.org/2000/svg" data-glyph="arrow-triangle-enter-right" class="rtl-support"
     aria-hidden="true" width="28.75" height="28.75" viewBox="0 0 32 32">
   <path
      d="M21.2 15.533 17.267 11.6c-.567-.567-.934-.433-.934.4v8c0 .833.367.967.934.4l3.933-3.933c.333-.334.333-.6 0-.934M4.033 17.5l13.934-.033V14.5H4.033c-.633 0-.866.3-.866 1.133v.734c0 .833.233 1.133.866 1.133M26 21V11c0-3.7-1.3-5-5-5H11c-3.7 0-5 1.3-5 5v.033q0 1 1 1t1-1V10.5C8 8.633 8.667 8 10.5 8h11c1.867 0 2.5.633 2.5 2.5v11c0 1.833-.633 2.5-2.5 2.5h-11C8.667 24 8 23.333 8 21.5v-.467q0-1-1-1t-1 1V21c0 3.7 1.3 5 5 5h10c3.7 0 5-1.3 5-5"></path>
</svg>
