<svg aria-hidden="true" data-glyph="user-badge-plus" height="28.75" viewBox="0 0 32 32" width="28.75"
     xmlns="http://www.w3.org/2000/svg">
   <path
      d="M4 24.367V26h11.5a9 9 0 0 1-1.5-5 8.96 8.96 0 0 1 4.464-7.79 8.7 8.7 0 0 0 .17-1.81c0-3.167-1.467-5.567-4.7-5.567-3.1 0-4.567 2.4-4.567 5.567 0 3.967 1.833 3.967 1.833 6.267 0 .766-.367 1-3.233 2.133l-1.2.467C4.7 21.1 4 22.133 4 24.367M23 28c3.867 0 7-3.167 7-7a7 7 0 0 0-7-7c-3.833 0-7 3.133-7 7 0 3.833 3.167 7 7 7m-1.033-3.033V22h-2.934c-.7 0-1.033-.333-1.033-1v.033c0-.7.333-1.033 1-1.033h2.967v-3c0-.667.333-1 1.033-1h-.033c.666 0 1 .333 1 1.033V20h3c.7 0 1.033.333 1.033 1v-.033c0 .7-.333 1.033-1 1.033h-3.033v3c0 .667-.334 1-1.034 1h.034c-.667 0-1-.333-1-1.033"></path>
</svg>
